<svg xmlns="http://www.w3.org/2000/svg" xmlns:xlink="http://www.w3.org/1999/xlink" width="500" zoomAndPan="magnify" viewBox="0 0 375 374.999991" height="500" preserveAspectRatio="xMidYMid meet" version="1.2"><defs><clipPath id="f3b87a9a44"><path d="M 260.007812 176.34375 L 324.507812 176.34375 L 324.507812 203.34375 L 260.007812 203.34375 Z M 260.007812 176.34375 "/></clipPath></defs><g id="9e6cfc207b"><g style="fill:#1051ab;fill-opacity:1;"><g transform="translate(21.072563, 206.398404)"><path style="stroke:none" d="M 8.046875 -4.53125 C 3.816406 -8.289062 1.703125 -13.113281 1.703125 -19 C 1.703125 -24.894531 3.90625 -29.738281 8.3125 -33.53125 C 12.71875 -37.320312 18.164062 -39.21875 24.65625 -39.21875 C 31.039062 -39.21875 36.421875 -37.3125 40.796875 -33.5 C 45.179688 -29.6875 47.375 -24.859375 47.375 -19.015625 C 47.375 -13.171875 45.234375 -8.351562 40.953125 -4.5625 C 36.671875 -0.78125 31.238281 1.109375 24.65625 1.109375 C 17.820312 1.109375 12.285156 -0.769531 8.046875 -4.53125 Z M 18.234375 -25.46875 C 16.523438 -23.789062 15.671875 -21.640625 15.671875 -19.015625 C 15.671875 -16.390625 16.488281 -14.242188 18.125 -12.578125 C 19.757812 -10.921875 21.910156 -10.09375 24.578125 -10.09375 C 27.148438 -10.09375 29.265625 -10.9375 30.921875 -12.625 C 32.585938 -14.3125 33.421875 -16.441406 33.421875 -19.015625 C 33.421875 -21.640625 32.566406 -23.789062 30.859375 -25.46875 C 29.148438 -27.15625 27.054688 -28 24.578125 -28 C 22.054688 -28 19.941406 -27.15625 18.234375 -25.46875 Z M 18.234375 -25.46875 "/></g></g><g style="fill:#1051ab;fill-opacity:1;"><g transform="translate(64.586421, 206.398404)"><path style="stroke:none" d="M 24.734375 -28.4375 C 22.253906 -28.4375 20.125 -27.519531 18.34375 -25.6875 C 16.5625 -23.863281 15.671875 -21.664062 15.671875 -19.09375 C 15.671875 -16.46875 16.5625 -14.238281 18.34375 -12.40625 C 20.125 -10.570312 22.253906 -9.65625 24.734375 -9.65625 C 25.921875 -9.65625 27.046875 -9.800781 28.109375 -10.09375 C 29.171875 -10.394531 29.953125 -10.691406 30.453125 -10.984375 L 31.125 -11.4375 L 35.578125 -2.296875 C 35.222656 -2.054688 34.738281 -1.75 34.125 -1.375 C 33.507812 -1 32.097656 -0.492188 29.890625 0.140625 C 27.691406 0.785156 25.328125 1.109375 22.796875 1.109375 C 17.203125 1.109375 12.285156 -0.851562 8.046875 -4.78125 C 3.816406 -8.71875 1.703125 -13.4375 1.703125 -18.9375 C 1.703125 -24.476562 3.816406 -29.242188 8.046875 -33.234375 C 12.285156 -37.222656 17.203125 -39.21875 22.796875 -39.21875 C 25.328125 -39.21875 27.65625 -38.921875 29.78125 -38.328125 C 31.90625 -37.734375 33.414062 -37.132812 34.3125 -36.53125 L 35.578125 -35.640625 L 31.125 -26.65625 C 29.488281 -27.84375 27.359375 -28.4375 24.734375 -28.4375 Z M 24.734375 -28.4375 "/></g></g><g style="fill:#1051ab;fill-opacity:1;"><g transform="translate(95.476571, 206.398404)"><path style="stroke:none" d="M 43 -17.234375 L 15.375 -17.234375 C 15.375 -14.554688 16.238281 -12.570312 17.96875 -11.28125 C 19.707031 -10 21.585938 -9.359375 23.609375 -9.359375 C 25.742188 -9.359375 27.425781 -9.640625 28.65625 -10.203125 C 29.894531 -10.773438 31.3125 -11.90625 32.90625 -13.59375 L 42.40625 -8.84375 C 38.445312 -2.207031 31.863281 1.109375 22.65625 1.109375 C 16.90625 1.109375 11.972656 -0.851562 7.859375 -4.78125 C 3.753906 -8.71875 1.703125 -13.457031 1.703125 -19 C 1.703125 -24.550781 3.753906 -29.304688 7.859375 -33.265625 C 11.972656 -37.234375 16.90625 -39.21875 22.65625 -39.21875 C 28.695312 -39.21875 33.609375 -37.46875 37.390625 -33.96875 C 41.179688 -30.476562 43.078125 -25.492188 43.078125 -19.015625 C 43.078125 -18.117188 43.050781 -17.523438 43 -17.234375 Z M 15.75 -24.5 L 30.21875 -24.5 C 29.925781 -26.488281 29.148438 -28.015625 27.890625 -29.078125 C 26.628906 -30.140625 25.003906 -30.671875 23.015625 -30.671875 C 20.835938 -30.671875 19.101562 -30.097656 17.8125 -28.953125 C 16.53125 -27.816406 15.84375 -26.332031 15.75 -24.5 Z M 15.75 -24.5 "/></g></g><g style="fill:#1051ab;fill-opacity:1;"><g transform="translate(134.683515, 206.398404)"><path style="stroke:none" d="M 7.046875 -4.71875 C 3.484375 -8.601562 1.703125 -13.367188 1.703125 -19.015625 C 1.703125 -24.660156 3.484375 -29.4375 7.046875 -33.34375 C 10.617188 -37.257812 15.148438 -39.21875 20.640625 -39.21875 C 25.691406 -39.21875 29.851562 -37.628906 33.125 -34.453125 L 33.125 -38.09375 L 46.265625 -38.09375 L 46.265625 0 L 33.265625 0 L 33.265625 -4.3125 L 33.125 -4.3125 C 29.851562 -0.695312 25.691406 1.109375 20.640625 1.109375 C 15.148438 1.109375 10.617188 -0.832031 7.046875 -4.71875 Z M 18.234375 -25.46875 C 16.523438 -23.789062 15.671875 -21.640625 15.671875 -19.015625 C 15.671875 -16.390625 16.488281 -14.242188 18.125 -12.578125 C 19.757812 -10.921875 21.910156 -10.09375 24.578125 -10.09375 C 27.148438 -10.09375 29.265625 -10.9375 30.921875 -12.625 C 32.585938 -14.3125 33.421875 -16.441406 33.421875 -19.015625 C 33.421875 -21.640625 32.566406 -23.789062 30.859375 -25.46875 C 29.148438 -27.15625 27.054688 -28 24.578125 -28 C 22.054688 -28 19.941406 -27.15625 18.234375 -25.46875 Z M 18.234375 -25.46875 "/></g></g><g style="fill:#1051ab;fill-opacity:1;"><g transform="translate(179.831032, 206.398404)"><path style="stroke:none" d="M 4.453125 0 L 4.453125 -38.09375 L 17.59375 -38.09375 L 17.59375 -34.09375 L 17.75 -34.09375 C 21.164062 -37.507812 24.804688 -39.21875 28.671875 -39.21875 C 30.546875 -39.21875 32.410156 -38.96875 34.265625 -38.46875 C 36.128906 -37.976562 37.914062 -37.210938 39.625 -36.171875 C 41.332031 -35.128906 42.71875 -33.65625 43.78125 -31.75 C 44.84375 -29.84375 45.375 -27.628906 45.375 -25.109375 L 45.375 0 L 32.234375 0 L 32.234375 -21.53125 C 32.234375 -23.507812 31.597656 -25.242188 30.328125 -26.734375 C 29.066406 -28.222656 27.425781 -28.96875 25.40625 -28.96875 C 23.414062 -28.96875 21.613281 -28.195312 20 -26.65625 C 18.394531 -25.125 17.59375 -23.414062 17.59375 -21.53125 L 17.59375 0 Z M 4.453125 0 "/></g></g><g style="fill:#1051ab;fill-opacity:1;"><g transform="translate(223.34489, 206.398404)"><path style="stroke:none" d="M 43.671875 -33.34375 C 47.234375 -29.4375 49.015625 -24.660156 49.015625 -19.015625 C 49.015625 -13.367188 47.234375 -8.601562 43.671875 -4.71875 C 40.109375 -0.832031 35.578125 1.109375 30.078125 1.109375 C 25.023438 1.109375 20.863281 -0.695312 17.59375 -4.3125 L 17.453125 -4.3125 L 17.453125 0 L 4.453125 0 L 4.453125 -63.875 L 17.59375 -63.875 L 17.59375 -34.453125 C 20.863281 -37.628906 25.023438 -39.21875 30.078125 -39.21875 C 35.578125 -39.21875 40.109375 -37.257812 43.671875 -33.34375 Z M 32.59375 -12.578125 C 34.226562 -14.242188 35.046875 -16.390625 35.046875 -19.015625 C 35.046875 -21.640625 34.191406 -23.789062 32.484375 -25.46875 C 30.773438 -27.15625 28.660156 -28 26.140625 -28 C 23.660156 -28 21.566406 -27.15625 19.859375 -25.46875 C 18.148438 -23.789062 17.296875 -21.640625 17.296875 -19.015625 C 17.296875 -16.441406 18.125 -14.3125 19.78125 -12.625 C 21.445312 -10.9375 23.566406 -10.09375 26.140625 -10.09375 C 28.816406 -10.09375 30.96875 -10.921875 32.59375 -12.578125 Z M 32.59375 -12.578125 "/></g></g><g style="fill:#1051ab;fill-opacity:1;"><g transform="translate(268.492407, 206.398404)"><path style="stroke:none" d="M 5.71875 -59.328125 C 7.25 -60.867188 9.078125 -61.640625 11.203125 -61.640625 C 13.335938 -61.640625 15.171875 -60.867188 16.703125 -59.328125 C 18.242188 -57.796875 19.015625 -55.96875 19.015625 -53.84375 C 19.015625 -51.71875 18.242188 -49.882812 16.703125 -48.34375 C 15.171875 -46.8125 13.335938 -46.046875 11.203125 -46.046875 C 9.078125 -46.046875 7.25 -46.8125 5.71875 -48.34375 C 4.1875 -49.882812 3.421875 -51.71875 3.421875 -53.84375 C 3.421875 -55.96875 4.1875 -57.796875 5.71875 -59.328125 Z M 4.453125 -38.09375 L 4.453125 0 L 17.59375 0 L 17.59375 -38.09375 Z M 4.453125 -38.09375 "/></g></g><g style="fill:#1051ab;fill-opacity:1;"><g transform="translate(285.347962, 206.398404)"><path style="stroke:none" d="M 6.6875 -38.09375 L 6.6875 -52.28125 L 19.828125 -52.28125 L 19.828125 -38.09375 L 27.84375 -38.09375 L 27.84375 -28.078125 L 19.828125 -28.078125 L 19.828125 -15.96875 C 19.828125 -12.445312 20.816406 -10.6875 22.796875 -10.6875 C 23.296875 -10.6875 23.816406 -10.785156 24.359375 -10.984375 C 24.898438 -11.179688 25.320312 -11.378906 25.625 -11.578125 L 26.0625 -11.875 L 29.328125 -1.265625 C 26.515625 0.316406 23.300781 1.109375 19.6875 1.109375 C 17.207031 1.109375 15.078125 0.675781 13.296875 -0.1875 C 11.515625 -1.050781 10.164062 -2.210938 9.25 -3.671875 C 8.332031 -5.128906 7.675781 -6.660156 7.28125 -8.265625 C 6.882812 -9.878906 6.6875 -11.601562 6.6875 -13.4375 L 6.6875 -28.078125 L 1.1875 -28.078125 L 1.1875 -38.09375 Z M 6.6875 -38.09375 "/></g></g><g style="fill:#1051ab;fill-opacity:1;"><g transform="translate(309.109405, 206.398404)"><path style="stroke:none" d="M 43 -17.234375 L 15.375 -17.234375 C 15.375 -14.554688 16.238281 -12.570312 17.96875 -11.28125 C 19.707031 -10 21.585938 -9.359375 23.609375 -9.359375 C 25.742188 -9.359375 27.425781 -9.640625 28.65625 -10.203125 C 29.894531 -10.773438 31.3125 -11.90625 32.90625 -13.59375 L 42.40625 -8.84375 C 38.445312 -2.207031 31.863281 1.109375 22.65625 1.109375 C 16.90625 1.109375 11.972656 -0.851562 7.859375 -4.78125 C 3.753906 -8.71875 1.703125 -13.457031 1.703125 -19 C 1.703125 -24.550781 3.753906 -29.304688 7.859375 -33.265625 C 11.972656 -37.234375 16.90625 -39.21875 22.65625 -39.21875 C 28.695312 -39.21875 33.609375 -37.46875 37.390625 -33.96875 C 41.179688 -30.476562 43.078125 -25.492188 43.078125 -19.015625 C 43.078125 -18.117188 43.050781 -17.523438 43 -17.234375 Z M 15.75 -24.5 L 30.21875 -24.5 C 29.925781 -26.488281 29.148438 -28.015625 27.890625 -29.078125 C 26.628906 -30.140625 25.003906 -30.671875 23.015625 -30.671875 C 20.835938 -30.671875 19.101562 -30.097656 17.8125 -28.953125 C 16.53125 -27.816406 15.84375 -26.332031 15.75 -24.5 Z M 15.75 -24.5 "/></g></g><g clip-rule="nonzero" clip-path="url(#f3b87a9a44)"><path style=" stroke:none;fill-rule:nonzero;fill:#ffffff;fill-opacity:1;" d="M 323.828125 190.203125 C 323.304688 190.214844 322.808594 190.421875 322.285156 190.339844 C 322.273438 190.304688 322.265625 190.238281 322.261719 190.203125 C 322.710938 190 323.207031 189.871094 323.621094 189.578125 C 323.839844 189.363281 324.15625 189.109375 324.007812 188.757812 C 323.84375 188.039062 323.183594 187.589844 322.613281 187.199219 C 321.933594 186.722656 321.167969 186.40625 320.441406 186.027344 C 319.644531 185.6875 318.566406 184.433594 307.726562 182.386719 C 303.730469 181.621094 299.679688 181.269531 299.511719 181.144531 C 295.777344 181.214844 292.007812 176.960938 290.863281 176.621094 C 290.683594 176.503906 290.550781 176.964844 290.464844 176.964844 C 290.359375 177.640625 290.050781 182.683594 290.671875 182.871094 C 289.972656 183.082031 289.246094 183.054688 288.535156 183.207031 C 287.375 183.429688 281.472656 185.210938 278.449219 185.90625 C 277.378906 186.105469 276.277344 186.066406 275.195312 186.070312 C 274.144531 186.050781 273.117188 185.820312 272.109375 185.554688 C 270.882812 185.207031 260.996094 181.070312 260.929688 181.410156 C 260.957031 184.15625 262.421875 186.019531 263.464844 188.460938 C 263.5 188.816406 263.648438 189.160156 263.597656 189.527344 C 263.019531 191.414062 260.820312 193.046875 260.277344 195.003906 C 260.28125 195.378906 260.117188 195.710938 259.980469 196.050781 C 260.433594 196.082031 260.886719 196.109375 261.339844 196.097656 C 262.332031 195.980469 268.140625 194.519531 269.03125 194.308594 C 269.90625 194.109375 270.722656 193.734375 271.585938 193.523438 C 272.074219 193.40625 272.515625 193.152344 273.007812 193.070312 C 273.984375 192.945312 274.96875 192.824219 275.953125 192.917969 C 276.640625 192.988281 277.324219 193.054688 278.003906 193.203125 C 278.515625 193.316406 282.300781 194.03125 284.570312 194.804688 C 286.0625 194.921875 291.722656 197.230469 292.253906 197.34375 C 291.382812 198.761719 291.480469 199.539062 291.253906 201.226562 C 291.109375 201.820312 291.082031 202.503906 291.496094 202.992188 C 291.6875 203.171875 291.992188 203.179688 292.203125 203.039062 C 295.261719 199.789062 298.695312 198.535156 298.84375 198.074219 C 300.707031 198.296875 302.582031 198.101562 304.449219 198.113281 C 314.730469 198.003906 321.863281 192.546875 322.519531 192.1875 C 323.066406 191.90625 323.652344 191.597656 323.980469 191.054688 C 324.246094 190.816406 324.152344 190.328125 323.828125 190.203125 Z M 317.609375 189.878906 C 317.003906 189.878906 316.511719 189.386719 316.511719 188.78125 C 316.511719 188.175781 317.003906 187.683594 317.609375 187.683594 C 318.214844 187.683594 318.707031 188.175781 318.707031 188.78125 C 318.707031 189.386719 318.214844 189.878906 317.609375 189.878906 Z M 317.609375 189.878906 "/></g><g style="fill:#1051ab;fill-opacity:1;"><g transform="translate(149.611466, 229.142751)"><path style="stroke:none" d="M 4.203125 0.140625 C 3.546875 0.140625 2.957031 0.0625 2.4375 -0.09375 C 1.925781 -0.257812 1.5 -0.472656 1.15625 -0.734375 C 0.820312 -1.003906 0.5625 -1.296875 0.375 -1.609375 L 1.40625 -2.875 L 1.578125 -2.875 C 1.859375 -2.445312 2.21875 -2.109375 2.65625 -1.859375 C 3.09375 -1.609375 3.609375 -1.484375 4.203125 -1.484375 C 4.703125 -1.484375 5.078125 -1.585938 5.328125 -1.796875 C 5.585938 -2.015625 5.71875 -2.304688 5.71875 -2.671875 C 5.71875 -2.898438 5.675781 -3.085938 5.59375 -3.234375 C 5.507812 -3.390625 5.367188 -3.519531 5.171875 -3.625 C 4.984375 -3.738281 4.726562 -3.832031 4.40625 -3.90625 L 3.1875 -4.1875 C 2.34375 -4.375 1.710938 -4.691406 1.296875 -5.140625 C 0.878906 -5.597656 0.671875 -6.1875 0.671875 -6.90625 C 0.671875 -7.445312 0.800781 -7.921875 1.0625 -8.328125 C 1.332031 -8.734375 1.722656 -9.046875 2.234375 -9.265625 C 2.742188 -9.492188 3.359375 -9.609375 4.078125 -9.609375 C 4.804688 -9.609375 5.429688 -9.507812 5.953125 -9.3125 C 6.472656 -9.125 6.910156 -8.832031 7.265625 -8.4375 L 6.34375 -7.15625 L 6.171875 -7.15625 C 5.910156 -7.4375 5.601562 -7.644531 5.25 -7.78125 C 4.90625 -7.925781 4.515625 -8 4.078125 -8 C 3.554688 -8 3.160156 -7.910156 2.890625 -7.734375 C 2.628906 -7.554688 2.5 -7.304688 2.5 -6.984375 C 2.5 -6.679688 2.59375 -6.441406 2.78125 -6.265625 C 2.96875 -6.085938 3.289062 -5.953125 3.75 -5.859375 L 5 -5.59375 C 5.914062 -5.40625 6.582031 -5.078125 7 -4.609375 C 7.414062 -4.140625 7.625 -3.535156 7.625 -2.796875 C 7.625 -2.203125 7.492188 -1.6875 7.234375 -1.25 C 6.984375 -0.8125 6.597656 -0.46875 6.078125 -0.21875 C 5.566406 0.0195312 4.941406 0.140625 4.203125 0.140625 Z M 4.203125 0.140625 "/></g></g><g style="fill:#1051ab;fill-opacity:1;"><g transform="translate(159.717683, 229.142751)"><path style="stroke:none" d="M 3.109375 -4.15625 L 3.109375 -1.5625 L 7.625 -1.5625 L 7.625 0 L 1.234375 0 L 1.234375 -9.46875 L 7.515625 -9.46875 L 7.515625 -7.90625 L 3.109375 -7.90625 L 3.109375 -5.6875 L 6.96875 -5.6875 L 6.96875 -4.15625 Z M 3.109375 -4.15625 "/></g></g><g style="fill:#1051ab;fill-opacity:1;"><g transform="translate(169.830381, 229.142751)"><path style="stroke:none" d="M 9.09375 0 L 7.125 0 L 6.40625 -2.1875 L 2.78125 -2.1875 L 2.0625 0 L 0.140625 0 L 3.40625 -9.46875 L 5.8125 -9.46875 Z M 4.5 -7.5 L 3.28125 -3.75 L 5.890625 -3.75 L 4.65625 -7.5 Z M 4.5 -7.5 "/></g></g><g style="fill:#1051ab;fill-opacity:1;"><g transform="translate(181.030557, 229.142751)"><path style="stroke:none" d="M 7.234375 -9.46875 L 7.234375 -7.90625 L 3.109375 -7.90625 L 3.109375 -5.390625 L 6.859375 -5.390625 L 6.859375 -3.84375 L 3.109375 -3.84375 L 3.109375 0 L 1.234375 0 L 1.234375 -9.46875 Z M 7.234375 -9.46875 "/></g></g><g style="fill:#1051ab;fill-opacity:1;"><g transform="translate(190.657766, 229.142751)"><path style="stroke:none" d="M 5.15625 0.140625 C 4.289062 0.140625 3.523438 -0.0351562 2.859375 -0.390625 C 2.203125 -0.742188 1.6875 -1.285156 1.3125 -2.015625 C 0.9375 -2.742188 0.75 -3.648438 0.75 -4.734375 C 0.75 -5.816406 0.9375 -6.722656 1.3125 -7.453125 C 1.6875 -8.179688 2.203125 -8.722656 2.859375 -9.078125 C 3.523438 -9.429688 4.289062 -9.609375 5.15625 -9.609375 C 6.03125 -9.609375 6.796875 -9.429688 7.453125 -9.078125 C 8.117188 -8.722656 8.632812 -8.179688 9 -7.453125 C 9.375 -6.722656 9.5625 -5.816406 9.5625 -4.734375 C 9.5625 -3.648438 9.375 -2.742188 9 -2.015625 C 8.632812 -1.285156 8.117188 -0.742188 7.453125 -0.390625 C 6.796875 -0.0351562 6.03125 0.140625 5.15625 0.140625 Z M 5.15625 -1.484375 C 5.96875 -1.484375 6.582031 -1.738281 7 -2.25 C 7.425781 -2.769531 7.640625 -3.597656 7.640625 -4.734375 C 7.640625 -5.867188 7.425781 -6.691406 7 -7.203125 C 6.582031 -7.722656 5.96875 -7.984375 5.15625 -7.984375 C 4.351562 -7.984375 3.738281 -7.722656 3.3125 -7.203125 C 2.882812 -6.691406 2.671875 -5.867188 2.671875 -4.734375 C 2.671875 -3.597656 2.882812 -2.769531 3.3125 -2.25 C 3.738281 -1.738281 4.351562 -1.484375 5.15625 -1.484375 Z M 5.15625 -1.484375 "/></g></g><g style="fill:#1051ab;fill-opacity:1;"><g transform="translate(202.94542, 229.142751)"><path style="stroke:none" d="M 5.15625 0.140625 C 4.289062 0.140625 3.523438 -0.0351562 2.859375 -0.390625 C 2.203125 -0.742188 1.6875 -1.285156 1.3125 -2.015625 C 0.9375 -2.742188 0.75 -3.648438 0.75 -4.734375 C 0.75 -5.816406 0.9375 -6.722656 1.3125 -7.453125 C 1.6875 -8.179688 2.203125 -8.722656 2.859375 -9.078125 C 3.523438 -9.429688 4.289062 -9.609375 5.15625 -9.609375 C 6.03125 -9.609375 6.796875 -9.429688 7.453125 -9.078125 C 8.117188 -8.722656 8.632812 -8.179688 9 -7.453125 C 9.375 -6.722656 9.5625 -5.816406 9.5625 -4.734375 C 9.5625 -3.648438 9.375 -2.742188 9 -2.015625 C 8.632812 -1.285156 8.117188 -0.742188 7.453125 -0.390625 C 6.796875 -0.0351562 6.03125 0.140625 5.15625 0.140625 Z M 5.15625 -1.484375 C 5.96875 -1.484375 6.582031 -1.738281 7 -2.25 C 7.425781 -2.769531 7.640625 -3.597656 7.640625 -4.734375 C 7.640625 -5.867188 7.425781 -6.691406 7 -7.203125 C 6.582031 -7.722656 5.96875 -7.984375 5.15625 -7.984375 C 4.351562 -7.984375 3.738281 -7.722656 3.3125 -7.203125 C 2.882812 -6.691406 2.671875 -5.867188 2.671875 -4.734375 C 2.671875 -3.597656 2.882812 -2.769531 3.3125 -2.25 C 3.738281 -1.738281 4.351562 -1.484375 5.15625 -1.484375 Z M 5.15625 -1.484375 "/></g></g><g style="fill:#1051ab;fill-opacity:1;"><g transform="translate(215.233073, 229.142751)"><path style="stroke:none" d="M 4.640625 -9.46875 C 6.171875 -9.46875 7.34375 -9.070312 8.15625 -8.28125 C 8.96875 -7.488281 9.375 -6.304688 9.375 -4.734375 C 9.375 -3.171875 8.96875 -1.988281 8.15625 -1.1875 C 7.34375 -0.394531 6.171875 0 4.640625 0 L 1.234375 0 L 1.234375 -9.46875 Z M 4.53125 -1.578125 C 5.5 -1.578125 6.222656 -1.820312 6.703125 -2.3125 C 7.191406 -2.8125 7.4375 -3.617188 7.4375 -4.734375 C 7.4375 -5.847656 7.191406 -6.648438 6.703125 -7.140625 C 6.222656 -7.640625 5.5 -7.890625 4.53125 -7.890625 L 3.109375 -7.890625 L 3.109375 -1.578125 Z M 4.53125 -1.578125 "/></g></g></g></svg>