<svg xmlns="http://www.w3.org/2000/svg" xmlns:xlink="http://www.w3.org/1999/xlink" width="500" zoomAndPan="magnify" viewBox="0 0 375 374.999991" height="500" preserveAspectRatio="xMidYMid meet" version="1.2"><defs><clipPath id="d4af9913fb"><path d="M 240.472656 179.347656 L 287.589844 179.347656 L 287.589844 199 L 240.472656 199 Z M 240.472656 179.347656 "/></clipPath></defs><g id="d97f1574a1"><g style="fill:#1051ab;fill-opacity:1;"><g transform="translate(65.917375, 201.30616)"><path style="stroke:none" d="M 5.890625 -3.3125 C 2.796875 -6.0625 1.25 -9.585938 1.25 -13.890625 C 1.25 -18.191406 2.859375 -21.722656 6.078125 -24.484375 C 9.296875 -27.253906 13.273438 -28.640625 18.015625 -28.640625 C 22.679688 -28.640625 26.613281 -27.25 29.8125 -24.46875 C 33.007812 -21.6875 34.609375 -18.160156 34.609375 -13.890625 C 34.609375 -9.617188 33.039062 -6.097656 29.90625 -3.328125 C 26.78125 -0.566406 22.816406 0.8125 18.015625 0.8125 C 13.023438 0.8125 8.984375 -0.5625 5.890625 -3.3125 Z M 13.3125 -18.609375 C 12.070312 -17.378906 11.453125 -15.804688 11.453125 -13.890625 C 11.453125 -11.972656 12.046875 -10.40625 13.234375 -9.1875 C 14.429688 -7.976562 16.003906 -7.375 17.953125 -7.375 C 19.835938 -7.375 21.382812 -7.988281 22.59375 -9.21875 C 23.800781 -10.445312 24.40625 -12.003906 24.40625 -13.890625 C 24.40625 -15.804688 23.78125 -17.378906 22.53125 -18.609375 C 21.289062 -19.835938 19.765625 -20.453125 17.953125 -20.453125 C 16.109375 -20.453125 14.5625 -19.835938 13.3125 -18.609375 Z M 13.3125 -18.609375 "/></g></g><g style="fill:#1051ab;fill-opacity:1;"><g transform="translate(97.706176, 201.30616)"><path style="stroke:none" d="M 18.0625 -20.78125 C 16.257812 -20.78125 14.707031 -20.109375 13.40625 -18.765625 C 12.101562 -17.429688 11.453125 -15.820312 11.453125 -13.9375 C 11.453125 -12.019531 12.101562 -10.390625 13.40625 -9.046875 C 14.707031 -7.710938 16.257812 -7.046875 18.0625 -7.046875 C 18.9375 -7.046875 19.757812 -7.15625 20.53125 -7.375 C 21.3125 -7.59375 21.882812 -7.8125 22.25 -8.03125 L 22.734375 -8.359375 L 25.984375 -1.6875 C 25.734375 -1.5 25.378906 -1.269531 24.921875 -1 C 24.472656 -0.726562 23.441406 -0.359375 21.828125 0.109375 C 20.222656 0.578125 18.5 0.8125 16.65625 0.8125 C 12.570312 0.8125 8.984375 -0.625 5.890625 -3.5 C 2.796875 -6.375 1.25 -9.816406 1.25 -13.828125 C 1.25 -17.878906 2.796875 -21.359375 5.890625 -24.265625 C 8.984375 -27.179688 12.570312 -28.640625 16.65625 -28.640625 C 18.5 -28.640625 20.195312 -28.421875 21.75 -27.984375 C 23.3125 -27.554688 24.414062 -27.125 25.0625 -26.6875 L 25.984375 -26.046875 L 22.734375 -19.46875 C 21.535156 -20.34375 19.976562 -20.78125 18.0625 -20.78125 Z M 18.0625 -20.78125 "/></g></g><g style="fill:#1051ab;fill-opacity:1;"><g transform="translate(120.272799, 201.30616)"><path style="stroke:none" d="M 31.40625 -12.59375 L 11.234375 -12.59375 C 11.234375 -10.632812 11.863281 -9.179688 13.125 -8.234375 C 14.394531 -7.296875 15.769531 -6.828125 17.25 -6.828125 C 18.800781 -6.828125 20.03125 -7.035156 20.9375 -7.453125 C 21.84375 -7.867188 22.875 -8.691406 24.03125 -9.921875 L 30.984375 -6.453125 C 28.085938 -1.609375 23.273438 0.8125 16.546875 0.8125 C 12.347656 0.8125 8.75 -0.625 5.75 -3.5 C 2.75 -6.375 1.25 -9.835938 1.25 -13.890625 C 1.25 -17.941406 2.75 -21.410156 5.75 -24.296875 C 8.75 -27.191406 12.347656 -28.640625 16.546875 -28.640625 C 20.960938 -28.640625 24.550781 -27.363281 27.3125 -24.8125 C 30.082031 -22.269531 31.46875 -18.628906 31.46875 -13.890625 C 31.46875 -13.234375 31.445312 -12.800781 31.40625 -12.59375 Z M 11.5 -17.90625 L 22.078125 -17.90625 C 21.859375 -19.351562 21.285156 -20.460938 20.359375 -21.234375 C 19.441406 -22.015625 18.257812 -22.40625 16.8125 -22.40625 C 15.226562 -22.40625 13.960938 -21.988281 13.015625 -21.15625 C 12.078125 -20.320312 11.570312 -19.238281 11.5 -17.90625 Z M 11.5 -17.90625 "/></g></g><g style="fill:#1051ab;fill-opacity:1;"><g transform="translate(148.915209, 201.30616)"><path style="stroke:none" d="M 5.15625 -3.4375 C 2.550781 -6.28125 1.25 -9.765625 1.25 -13.890625 C 1.25 -18.015625 2.550781 -21.503906 5.15625 -24.359375 C 7.757812 -27.210938 11.066406 -28.640625 15.078125 -28.640625 C 18.765625 -28.640625 21.804688 -27.484375 24.203125 -25.171875 L 24.203125 -27.828125 L 33.796875 -27.828125 L 33.796875 0 L 24.296875 0 L 24.296875 -3.140625 L 24.203125 -3.140625 C 21.804688 -0.503906 18.765625 0.8125 15.078125 0.8125 C 11.066406 0.8125 7.757812 -0.601562 5.15625 -3.4375 Z M 13.3125 -18.609375 C 12.070312 -17.378906 11.453125 -15.804688 11.453125 -13.890625 C 11.453125 -11.972656 12.046875 -10.40625 13.234375 -9.1875 C 14.429688 -7.976562 16.003906 -7.375 17.953125 -7.375 C 19.835938 -7.375 21.382812 -7.988281 22.59375 -9.21875 C 23.800781 -10.445312 24.40625 -12.003906 24.40625 -13.890625 C 24.40625 -15.804688 23.78125 -17.378906 22.53125 -18.609375 C 21.289062 -19.835938 19.765625 -20.453125 17.953125 -20.453125 C 16.109375 -20.453125 14.5625 -19.835938 13.3125 -18.609375 Z M 13.3125 -18.609375 "/></g></g><g style="fill:#1051ab;fill-opacity:1;"><g transform="translate(181.89747, 201.30616)"><path style="stroke:none" d="M 3.25 0 L 3.25 -27.828125 L 12.859375 -27.828125 L 12.859375 -24.90625 L 12.96875 -24.90625 C 15.457031 -27.394531 18.113281 -28.640625 20.9375 -28.640625 C 22.3125 -28.640625 23.675781 -28.457031 25.03125 -28.09375 C 26.394531 -27.738281 27.695312 -27.179688 28.9375 -26.421875 C 30.1875 -25.660156 31.195312 -24.582031 31.96875 -23.1875 C 32.75 -21.800781 33.140625 -20.1875 33.140625 -18.34375 L 33.140625 0 L 23.546875 0 L 23.546875 -15.734375 C 23.546875 -17.179688 23.082031 -18.445312 22.15625 -19.53125 C 21.238281 -20.613281 20.035156 -21.15625 18.546875 -21.15625 C 17.109375 -21.15625 15.800781 -20.59375 14.625 -19.46875 C 13.445312 -18.351562 12.859375 -17.109375 12.859375 -15.734375 L 12.859375 0 Z M 3.25 0 "/></g></g><g style="fill:#1051ab;fill-opacity:1;"><g transform="translate(213.686271, 201.30616)"><path style="stroke:none" d="M 31.90625 -24.359375 C 34.507812 -21.503906 35.8125 -18.015625 35.8125 -13.890625 C 35.8125 -9.765625 34.507812 -6.28125 31.90625 -3.4375 C 29.300781 -0.601562 25.988281 0.8125 21.96875 0.8125 C 18.28125 0.8125 15.242188 -0.503906 12.859375 -3.140625 L 12.75 -3.140625 L 12.75 0 L 3.25 0 L 3.25 -46.65625 L 12.859375 -46.65625 L 12.859375 -25.171875 C 15.242188 -27.484375 18.28125 -28.640625 21.96875 -28.640625 C 25.988281 -28.640625 29.300781 -27.210938 31.90625 -24.359375 Z M 23.8125 -9.1875 C 25.007812 -10.40625 25.609375 -11.972656 25.609375 -13.890625 C 25.609375 -15.804688 24.984375 -17.378906 23.734375 -18.609375 C 22.484375 -19.835938 20.9375 -20.453125 19.09375 -20.453125 C 17.289062 -20.453125 15.765625 -19.835938 14.515625 -18.609375 C 13.265625 -17.378906 12.640625 -15.804688 12.640625 -13.890625 C 12.640625 -12.003906 13.242188 -10.445312 14.453125 -9.21875 C 15.671875 -7.988281 17.21875 -7.375 19.09375 -7.375 C 21.050781 -7.375 22.625 -7.976562 23.8125 -9.1875 Z M 23.8125 -9.1875 "/></g></g><g style="fill:#1051ab;fill-opacity:1;"><g transform="translate(246.668532, 201.30616)"><path style="stroke:none" d="M 4.171875 -43.34375 C 5.296875 -44.46875 6.632812 -45.03125 8.1875 -45.03125 C 9.75 -45.03125 11.085938 -44.46875 12.203125 -43.34375 C 13.328125 -42.21875 13.890625 -40.878906 13.890625 -39.328125 C 13.890625 -37.773438 13.328125 -36.4375 12.203125 -35.3125 C 11.085938 -34.195312 9.75 -33.640625 8.1875 -33.640625 C 6.632812 -33.640625 5.296875 -34.195312 4.171875 -35.3125 C 3.054688 -36.4375 2.5 -37.773438 2.5 -39.328125 C 2.5 -40.878906 3.054688 -42.21875 4.171875 -43.34375 Z M 3.25 -27.828125 L 3.25 0 L 12.859375 0 L 12.859375 -27.828125 Z M 3.25 -27.828125 "/></g></g><g style="fill:#1051ab;fill-opacity:1;"><g transform="translate(258.982262, 201.30616)"><path style="stroke:none" d="M 4.875 -27.828125 L 4.875 -38.1875 L 14.484375 -38.1875 L 14.484375 -27.828125 L 20.34375 -27.828125 L 20.34375 -20.5 L 14.484375 -20.5 L 14.484375 -11.65625 C 14.484375 -9.09375 15.207031 -7.8125 16.65625 -7.8125 C 17.019531 -7.8125 17.398438 -7.882812 17.796875 -8.03125 C 18.191406 -8.175781 18.5 -8.320312 18.71875 -8.46875 L 19.046875 -8.6875 L 21.421875 -0.921875 C 19.367188 0.234375 17.019531 0.8125 14.375 0.8125 C 12.5625 0.8125 11.003906 0.5 9.703125 -0.125 C 8.398438 -0.757812 7.414062 -1.609375 6.75 -2.671875 C 6.082031 -3.742188 5.601562 -4.867188 5.3125 -6.046875 C 5.019531 -7.222656 4.875 -8.476562 4.875 -9.8125 L 4.875 -20.5 L 0.875 -20.5 L 0.875 -27.828125 Z M 4.875 -27.828125 "/></g></g><g style="fill:#1051ab;fill-opacity:1;"><g transform="translate(276.341049, 201.30616)"><path style="stroke:none" d="M 31.40625 -12.59375 L 11.234375 -12.59375 C 11.234375 -10.632812 11.863281 -9.179688 13.125 -8.234375 C 14.394531 -7.296875 15.769531 -6.828125 17.25 -6.828125 C 18.800781 -6.828125 20.03125 -7.035156 20.9375 -7.453125 C 21.84375 -7.867188 22.875 -8.691406 24.03125 -9.921875 L 30.984375 -6.453125 C 28.085938 -1.609375 23.273438 0.8125 16.546875 0.8125 C 12.347656 0.8125 8.75 -0.625 5.75 -3.5 C 2.75 -6.375 1.25 -9.835938 1.25 -13.890625 C 1.25 -17.941406 2.75 -21.410156 5.75 -24.296875 C 8.75 -27.191406 12.347656 -28.640625 16.546875 -28.640625 C 20.960938 -28.640625 24.550781 -27.363281 27.3125 -24.8125 C 30.082031 -22.269531 31.46875 -18.628906 31.46875 -13.890625 C 31.46875 -13.234375 31.445312 -12.800781 31.40625 -12.59375 Z M 11.5 -17.90625 L 22.078125 -17.90625 C 21.859375 -19.351562 21.285156 -20.460938 20.359375 -21.234375 C 19.441406 -22.015625 18.257812 -22.40625 16.8125 -22.40625 C 15.226562 -22.40625 13.960938 -21.988281 13.015625 -21.15625 C 12.078125 -20.320312 11.570312 -19.238281 11.5 -17.90625 Z M 11.5 -17.90625 "/></g></g><g clip-rule="nonzero" clip-path="url(#d4af9913fb)"><path style=" stroke:none;fill-rule:nonzero;fill:#ffffff;fill-opacity:1;" d="M 287.09375 189.472656 C 286.710938 189.484375 286.347656 189.632812 285.96875 189.574219 C 285.960938 189.546875 285.953125 189.5 285.949219 189.472656 C 286.277344 189.324219 286.640625 189.230469 286.941406 189.015625 C 287.101562 188.859375 287.332031 188.675781 287.222656 188.421875 C 287.105469 187.894531 286.621094 187.566406 286.207031 187.28125 C 285.710938 186.933594 285.148438 186.703125 284.621094 186.425781 C 284.035156 186.175781 283.25 185.261719 275.332031 183.761719 C 272.410156 183.203125 269.453125 182.949219 269.332031 182.855469 C 266.601562 182.90625 263.847656 179.800781 263.011719 179.550781 C 262.878906 179.464844 262.785156 179.804688 262.71875 179.804688 L 262.722656 179.804688 C 262.640625 180.296875 262.417969 183.980469 262.871094 184.121094 C 262.363281 184.269531 261.828125 184.253906 261.3125 184.363281 C 260.460938 184.527344 256.152344 185.828125 253.941406 186.335938 C 253.160156 186.480469 252.355469 186.453125 251.5625 186.457031 C 250.800781 186.441406 250.046875 186.273438 249.3125 186.078125 C 248.414062 185.824219 241.191406 182.804688 241.144531 183.050781 C 241.164062 185.058594 242.234375 186.417969 242.996094 188.203125 C 243.023438 188.460938 243.128906 188.714844 243.09375 188.980469 C 242.667969 190.359375 241.0625 191.554688 240.667969 192.980469 C 240.667969 193.253906 240.550781 193.5 240.449219 193.746094 C 240.78125 193.769531 241.113281 193.789062 241.445312 193.78125 C 242.167969 193.695312 246.410156 192.628906 247.0625 192.476562 C 247.699219 192.328125 248.296875 192.054688 248.929688 191.898438 C 249.285156 191.816406 249.609375 191.628906 249.96875 191.570312 C 250.679688 191.476562 251.398438 191.386719 252.121094 191.457031 C 252.621094 191.511719 253.121094 191.558594 253.617188 191.664062 C 253.988281 191.746094 256.757812 192.269531 258.414062 192.835938 C 259.503906 192.921875 263.636719 194.609375 264.027344 194.691406 C 263.390625 195.726562 263.460938 196.296875 263.296875 197.527344 C 263.191406 197.960938 263.171875 198.460938 263.476562 198.820312 C 263.613281 198.949219 263.835938 198.957031 263.992188 198.851562 C 266.226562 196.476562 268.734375 195.5625 268.839844 195.222656 C 270.203125 195.386719 271.570312 195.246094 272.9375 195.253906 C 280.445312 195.175781 285.65625 191.1875 286.136719 190.921875 C 286.539062 190.71875 286.964844 190.492188 287.207031 190.097656 C 287.398438 189.921875 287.332031 189.566406 287.09375 189.472656 Z M 282.550781 189.238281 C 282.109375 189.238281 281.75 188.878906 281.75 188.4375 C 281.75 187.992188 282.109375 187.632812 282.550781 187.632812 C 282.992188 187.632812 283.351562 187.992188 283.351562 188.4375 C 283.351562 188.878906 282.992188 189.238281 282.550781 189.238281 Z M 282.550781 189.238281 "/></g><g style="fill:#1051ab;fill-opacity:1;"><g transform="translate(159.820732, 217.921874)"><path style="stroke:none" d="M 3.0625 0.09375 C 2.582031 0.09375 2.15625 0.0351562 1.78125 -0.078125 C 1.40625 -0.191406 1.09375 -0.34375 0.84375 -0.53125 C 0.601562 -0.726562 0.414062 -0.941406 0.28125 -1.171875 L 1.03125 -2.09375 L 1.15625 -2.09375 C 1.363281 -1.78125 1.625 -1.53125 1.9375 -1.34375 C 2.257812 -1.164062 2.632812 -1.078125 3.0625 -1.078125 C 3.425781 -1.078125 3.703125 -1.15625 3.890625 -1.3125 C 4.078125 -1.46875 4.171875 -1.679688 4.171875 -1.953125 C 4.171875 -2.117188 4.140625 -2.253906 4.078125 -2.359375 C 4.023438 -2.472656 3.925781 -2.566406 3.78125 -2.640625 C 3.644531 -2.722656 3.457031 -2.796875 3.21875 -2.859375 L 2.328125 -3.0625 C 1.710938 -3.195312 1.25 -3.425781 0.9375 -3.75 C 0.632812 -4.082031 0.484375 -4.515625 0.484375 -5.046875 C 0.484375 -5.441406 0.582031 -5.785156 0.78125 -6.078125 C 0.976562 -6.367188 1.257812 -6.597656 1.625 -6.765625 C 2 -6.929688 2.445312 -7.015625 2.96875 -7.015625 C 3.507812 -7.015625 3.96875 -6.941406 4.34375 -6.796875 C 4.726562 -6.660156 5.050781 -6.445312 5.3125 -6.15625 L 4.625 -5.234375 L 4.515625 -5.234375 C 4.316406 -5.441406 4.09375 -5.59375 3.84375 -5.6875 C 3.59375 -5.789062 3.300781 -5.84375 2.96875 -5.84375 C 2.59375 -5.84375 2.304688 -5.773438 2.109375 -5.640625 C 1.921875 -5.515625 1.828125 -5.332031 1.828125 -5.09375 C 1.828125 -4.875 1.894531 -4.703125 2.03125 -4.578125 C 2.164062 -4.453125 2.40625 -4.351562 2.75 -4.28125 L 3.65625 -4.09375 C 4.320312 -3.945312 4.804688 -3.703125 5.109375 -3.359375 C 5.410156 -3.023438 5.5625 -2.582031 5.5625 -2.03125 C 5.5625 -1.601562 5.46875 -1.226562 5.28125 -0.90625 C 5.101562 -0.59375 4.828125 -0.347656 4.453125 -0.171875 C 4.078125 0.00390625 3.613281 0.09375 3.0625 0.09375 Z M 3.0625 0.09375 "/></g></g><g style="fill:#1051ab;fill-opacity:1;"><g transform="translate(167.203772, 217.921874)"><path style="stroke:none" d="M 2.265625 -3.03125 L 2.265625 -1.140625 L 5.5625 -1.140625 L 5.5625 0 L 0.90625 0 L 0.90625 -6.921875 L 5.484375 -6.921875 L 5.484375 -5.765625 L 2.265625 -5.765625 L 2.265625 -4.15625 L 5.078125 -4.15625 L 5.078125 -3.03125 Z M 2.265625 -3.03125 "/></g></g><g style="fill:#1051ab;fill-opacity:1;"><g transform="translate(174.591546, 217.921874)"><path style="stroke:none" d="M 6.640625 0 L 5.203125 0 L 4.671875 -1.59375 L 2.03125 -1.59375 L 1.515625 0 L 0.109375 0 L 2.5 -6.921875 L 4.25 -6.921875 Z M 3.28125 -5.46875 L 2.390625 -2.75 L 4.296875 -2.75 L 3.40625 -5.46875 Z M 3.28125 -5.46875 "/></g></g><g style="fill:#1051ab;fill-opacity:1;"><g transform="translate(182.77377, 217.921874)"><path style="stroke:none" d="M 5.28125 -6.921875 L 5.28125 -5.765625 L 2.265625 -5.765625 L 2.265625 -3.9375 L 5 -3.9375 L 5 -2.8125 L 2.265625 -2.8125 L 2.265625 0 L 0.90625 0 L 0.90625 -6.921875 Z M 5.28125 -6.921875 "/></g></g><g style="fill:#1051ab;fill-opacity:1;"><g transform="translate(189.806873, 217.921874)"><path style="stroke:none" d="M 3.765625 0.09375 C 3.128906 0.09375 2.566406 -0.03125 2.078125 -0.28125 C 1.597656 -0.539062 1.222656 -0.9375 0.953125 -1.46875 C 0.679688 -2 0.546875 -2.660156 0.546875 -3.453125 C 0.546875 -4.242188 0.679688 -4.90625 0.953125 -5.4375 C 1.222656 -5.96875 1.597656 -6.363281 2.078125 -6.625 C 2.566406 -6.882812 3.128906 -7.015625 3.765625 -7.015625 C 4.398438 -7.015625 4.957031 -6.882812 5.4375 -6.625 C 5.925781 -6.375 6.304688 -5.976562 6.578125 -5.4375 C 6.847656 -4.90625 6.984375 -4.242188 6.984375 -3.453125 C 6.984375 -2.660156 6.847656 -2 6.578125 -1.46875 C 6.304688 -0.9375 5.925781 -0.539062 5.4375 -0.28125 C 4.957031 -0.03125 4.398438 0.09375 3.765625 0.09375 Z M 3.765625 -1.09375 C 4.359375 -1.09375 4.804688 -1.28125 5.109375 -1.65625 C 5.421875 -2.03125 5.578125 -2.628906 5.578125 -3.453125 C 5.578125 -4.285156 5.421875 -4.890625 5.109375 -5.265625 C 4.804688 -5.640625 4.359375 -5.828125 3.765625 -5.828125 C 3.179688 -5.828125 2.734375 -5.640625 2.421875 -5.265625 C 2.109375 -4.890625 1.953125 -4.285156 1.953125 -3.453125 C 1.953125 -2.628906 2.109375 -2.03125 2.421875 -1.65625 C 2.734375 -1.28125 3.179688 -1.09375 3.765625 -1.09375 Z M 3.765625 -1.09375 "/></g></g><g style="fill:#1051ab;fill-opacity:1;"><g transform="translate(198.783548, 217.921874)"><path style="stroke:none" d="M 3.765625 0.09375 C 3.128906 0.09375 2.566406 -0.03125 2.078125 -0.28125 C 1.597656 -0.539062 1.222656 -0.9375 0.953125 -1.46875 C 0.679688 -2 0.546875 -2.660156 0.546875 -3.453125 C 0.546875 -4.242188 0.679688 -4.90625 0.953125 -5.4375 C 1.222656 -5.96875 1.597656 -6.363281 2.078125 -6.625 C 2.566406 -6.882812 3.128906 -7.015625 3.765625 -7.015625 C 4.398438 -7.015625 4.957031 -6.882812 5.4375 -6.625 C 5.925781 -6.375 6.304688 -5.976562 6.578125 -5.4375 C 6.847656 -4.90625 6.984375 -4.242188 6.984375 -3.453125 C 6.984375 -2.660156 6.847656 -2 6.578125 -1.46875 C 6.304688 -0.9375 5.925781 -0.539062 5.4375 -0.28125 C 4.957031 -0.03125 4.398438 0.09375 3.765625 0.09375 Z M 3.765625 -1.09375 C 4.359375 -1.09375 4.804688 -1.28125 5.109375 -1.65625 C 5.421875 -2.03125 5.578125 -2.628906 5.578125 -3.453125 C 5.578125 -4.285156 5.421875 -4.890625 5.109375 -5.265625 C 4.804688 -5.640625 4.359375 -5.828125 3.765625 -5.828125 C 3.179688 -5.828125 2.734375 -5.640625 2.421875 -5.265625 C 2.109375 -4.890625 1.953125 -4.285156 1.953125 -3.453125 C 1.953125 -2.628906 2.109375 -2.03125 2.421875 -1.65625 C 2.734375 -1.28125 3.179688 -1.09375 3.765625 -1.09375 Z M 3.765625 -1.09375 "/></g></g><g style="fill:#1051ab;fill-opacity:1;"><g transform="translate(207.760223, 217.921874)"><path style="stroke:none" d="M 3.390625 -6.921875 C 4.515625 -6.921875 5.367188 -6.628906 5.953125 -6.046875 C 6.546875 -5.460938 6.84375 -4.597656 6.84375 -3.453125 C 6.84375 -2.316406 6.546875 -1.457031 5.953125 -0.875 C 5.367188 -0.289062 4.515625 0 3.390625 0 L 0.90625 0 L 0.90625 -6.921875 Z M 3.3125 -1.15625 C 4.019531 -1.15625 4.550781 -1.332031 4.90625 -1.6875 C 5.257812 -2.050781 5.4375 -2.640625 5.4375 -3.453125 C 5.4375 -4.265625 5.257812 -4.851562 4.90625 -5.21875 C 4.550781 -5.582031 4.019531 -5.765625 3.3125 -5.765625 L 2.265625 -5.765625 L 2.265625 -1.15625 Z M 3.3125 -1.15625 "/></g></g></g></svg>