<?xml version="1.0" encoding="UTF-8" standalone="no"?><!-- Generator: Gravit.io --><svg xmlns="http://www.w3.org/2000/svg" xmlns:xlink="http://www.w3.org/1999/xlink" style="isolation:isolate" viewBox="0 0 321 85" width="321pt" height="85pt"><defs><clipPath id="_clipPath_QuW4OrhmqjvErIp9VI7jgUpMvQJlovd2"><rect width="321" height="85"/></clipPath></defs><g clip-path="url(#_clipPath_QuW4OrhmqjvErIp9VI7jgUpMvQJlovd2)"><g><g><g><path d=" M 6.187 57.792 C 2.062 54.125 0 49.427 0 43.687 C 0 37.953 2.146 33.245 6.437 29.562 C 10.729 25.87 16.031 24.021 22.354 24.021 C 28.573 24.021 33.818 25.875 38.083 29.583 C 42.344 33.292 44.479 37.995 44.479 43.687 C 44.479 49.385 42.385 54.078 38.208 57.771 C 34.042 61.453 28.755 63.292 22.354 63.292 C 15.698 63.292 10.312 61.458 6.187 57.792 Z  M 16.083 37.396 C 14.427 39.036 13.604 41.135 13.604 43.687 C 13.604 46.245 14.396 48.333 15.979 49.958 C 17.573 51.573 19.672 52.375 22.271 52.375 C 24.781 52.375 26.844 51.557 28.458 49.917 C 30.068 48.281 30.875 46.203 30.875 43.687 C 30.875 41.135 30.042 39.036 28.375 37.396 C 26.719 35.76 24.687 34.937 22.271 34.937 C 19.812 34.937 17.75 35.76 16.083 37.396 Z " fill="rgb(16,81,171)"/></g></g><g><g><path d=" M 64.802 34.5 C 62.395 34.5 60.328 35.396 58.593 37.188 C 56.854 38.969 55.989 41.115 55.989 43.625 C 55.989 46.182 56.854 48.354 58.593 50.146 C 60.328 51.927 62.395 52.813 64.802 52.813 C 65.968 52.813 67.062 52.667 68.093 52.375 C 69.135 52.083 69.895 51.792 70.385 51.5 L 71.031 51.063 L 75.364 59.958 C 75.031 60.208 74.557 60.516 73.948 60.875 C 73.349 61.24 71.974 61.729 69.823 62.354 C 67.682 62.979 65.385 63.292 62.927 63.292 C 57.479 63.292 52.698 61.375 48.573 57.542 C 44.448 53.708 42.385 49.12 42.385 43.771 C 42.385 38.37 44.448 33.729 48.573 29.854 C 52.698 25.969 57.479 24.021 62.927 24.021 C 65.385 24.021 67.645 24.313 69.718 24.896 C 71.802 25.469 73.27 26.042 74.135 26.625 L 75.364 27.479 L 71.031 36.25 C 69.432 35.083 67.354 34.5 64.802 34.5 Z " fill="rgb(16,81,171)"/></g></g><g><g><path d=" M 112.682 45.417 L 85.786 45.417 C 85.786 48.031 86.625 49.969 88.307 51.229 C 90 52.479 91.833 53.104 93.807 53.104 C 95.875 53.104 97.516 52.828 98.724 52.271 C 99.932 51.719 101.307 50.62 102.849 48.979 L 112.12 53.604 C 108.255 60.062 101.838 63.292 92.87 63.292 C 87.271 63.292 82.474 61.375 78.474 57.542 C 74.474 53.708 72.474 49.094 72.474 43.687 C 72.474 38.286 74.474 33.661 78.474 29.812 C 82.474 25.953 87.271 24.021 92.87 24.021 C 98.755 24.021 103.542 25.724 107.224 29.125 C 110.917 32.516 112.766 37.37 112.766 43.687 C 112.766 44.562 112.734 45.141 112.682 45.417 Z  M 86.141 38.333 L 100.245 38.333 C 99.953 36.406 99.187 34.927 97.953 33.896 C 96.729 32.854 95.151 32.333 93.224 32.333 C 91.109 32.333 89.422 32.891 88.161 34 C 86.911 35.115 86.234 36.557 86.141 38.333 Z " fill="rgb(16,81,171)"/></g></g><g><g><path d=" M 115.872 57.625 C 112.398 53.833 110.664 49.187 110.664 43.687 C 110.664 38.187 112.398 33.536 115.872 29.729 C 119.341 25.927 123.752 24.021 129.101 24.021 C 134.018 24.021 138.07 25.562 141.268 28.646 L 141.268 25.104 L 154.06 25.104 L 154.06 62.208 L 141.393 62.208 L 141.393 58.021 L 141.268 58.021 C 138.07 61.536 134.018 63.292 129.101 63.292 C 123.752 63.292 119.341 61.406 115.872 57.625 Z  M 126.747 37.396 C 125.091 39.036 124.268 41.135 124.268 43.687 C 124.268 46.245 125.06 48.333 126.643 49.958 C 128.237 51.573 130.336 52.375 132.935 52.375 C 135.445 52.375 137.508 51.557 139.122 49.917 C 140.731 48.281 141.539 46.203 141.539 43.687 C 141.539 41.135 140.705 39.036 139.039 37.396 C 137.383 35.76 135.351 34.937 132.935 34.937 C 130.476 34.937 128.414 35.76 126.747 37.396 Z " fill="rgb(16,81,171)"/></g></g><g><g><path d=" M 157.307 62.208 L 157.307 25.104 L 170.119 25.104 L 170.119 29 L 170.265 29 C 173.583 25.682 177.125 24.021 180.89 24.021 C 182.723 24.021 184.541 24.266 186.348 24.75 C 188.166 25.224 189.901 25.969 191.557 26.979 C 193.223 27.995 194.567 29.432 195.598 31.292 C 196.64 33.141 197.161 35.292 197.161 37.75 L 197.161 62.208 L 184.369 62.208 L 184.369 41.229 C 184.369 39.302 183.75 37.615 182.515 36.167 C 181.291 34.724 179.687 34 177.703 34 C 175.786 34 174.041 34.75 172.473 36.25 C 170.901 37.74 170.119 39.396 170.119 41.229 L 170.119 62.208 L 157.307 62.208 Z " fill="rgb(16,81,171)"/></g></g><g><g><path d=" M 237.9 29.729 C 241.369 33.536 243.109 38.187 243.109 43.687 C 243.109 49.187 241.369 53.833 237.9 57.625 C 234.426 61.406 230.01 63.292 224.65 63.292 C 219.734 63.292 215.681 61.536 212.504 58.021 L 212.359 58.021 L 212.359 62.208 L 199.692 62.208 L 199.692 0 L 212.504 0 L 212.504 28.646 C 215.681 25.562 219.734 24.021 224.65 24.021 C 230.01 24.021 234.426 25.927 237.9 29.729 Z  M 227.109 49.958 C 228.702 48.333 229.504 46.245 229.504 43.687 C 229.504 41.135 228.671 39.036 227.004 37.396 C 225.338 35.76 223.275 34.937 220.817 34.937 C 218.411 34.937 216.379 35.76 214.713 37.396 C 213.046 39.036 212.213 41.135 212.213 43.687 C 212.213 46.203 213.015 48.281 214.629 49.917 C 216.254 51.557 218.317 52.375 220.817 52.375 C 223.426 52.375 225.525 51.573 227.109 49.958 Z " fill="rgb(16,81,171)"/></g></g><g><g><path d=" M 244.897 4.417 C 246.397 2.917 248.179 2.167 250.252 2.167 C 252.335 2.167 254.116 2.917 255.606 4.417 C 257.106 5.917 257.856 7.703 257.856 9.771 C 257.856 11.844 257.106 13.625 255.606 15.125 C 254.116 16.615 252.335 17.354 250.252 17.354 C 248.179 17.354 246.397 16.615 244.897 15.125 C 243.408 13.625 242.668 11.844 242.668 9.771 C 242.668 7.703 243.408 5.917 244.897 4.417 Z  M 243.668 25.104 L 243.668 62.208 L 256.481 62.208 L 256.481 25.104 L 243.668 25.104 Z " fill="rgb(16,81,171)"/></g></g><g><g><path d=" M 262.253 25.104 L 262.253 11.292 L 275.066 11.292 L 275.066 25.104 L 282.878 25.104 L 282.878 34.875 L 275.066 34.875 L 275.066 46.667 C 275.066 50.083 276.029 51.792 277.962 51.792 C 278.446 51.792 278.951 51.698 279.482 51.5 C 280.008 51.307 280.42 51.115 280.712 50.917 L 281.149 50.625 L 284.316 60.979 C 281.576 62.521 278.446 63.292 274.92 63.292 C 272.503 63.292 270.425 62.875 268.691 62.042 C 266.951 61.198 265.639 60.063 264.753 58.646 C 263.863 57.219 263.222 55.719 262.837 54.146 C 262.446 52.578 262.253 50.906 262.253 49.125 L 262.253 34.875 L 256.92 34.875 L 256.92 25.104 L 262.253 25.104 Z " fill="rgb(16,81,171)"/></g></g><g><g><path d=" M 320.773 45.417 L 293.877 45.417 C 293.877 48.031 294.716 49.969 296.398 51.229 C 298.091 52.479 299.924 53.104 301.898 53.104 C 303.966 53.104 305.607 52.828 306.815 52.271 C 308.023 51.719 309.398 50.62 310.94 48.979 L 320.211 53.604 C 316.346 60.062 309.929 63.292 300.961 63.292 C 295.362 63.292 290.565 61.375 286.565 57.542 C 282.565 53.708 280.565 49.094 280.565 43.687 C 280.565 38.286 282.565 33.661 286.565 29.812 C 290.565 25.953 295.362 24.021 300.961 24.021 C 306.846 24.021 311.633 25.724 315.315 29.125 C 319.008 32.516 320.857 37.37 320.857 43.687 C 320.857 44.562 320.825 45.141 320.773 45.417 Z  M 294.232 38.333 L 308.336 38.333 C 308.044 36.406 307.278 34.927 306.044 33.896 C 304.82 32.854 303.242 32.333 301.315 32.333 C 299.2 32.333 297.513 32.891 296.252 34 C 295.002 35.115 294.325 36.557 294.232 38.333 Z " fill="rgb(16,81,171)"/></g></g><clipPath id="_clipPath_KtNEolBT8kgeVUoyvxqkgNL82GYdwKp9"><path d=" M 231.074 32.93 L 293.897 32.93 L 293.897 59.133 L 231.074 59.133 L 231.074 32.93 Z " fill="rgb(255,255,255)"/></clipPath><g clip-path="url(#_clipPath_KtNEolBT8kgeVUoyvxqkgNL82GYdwKp9)"><g><path d=" M 293.235 46.43 C 292.725 46.446 292.24 46.644 291.735 46.566 C 291.725 46.529 291.714 46.467 291.709 46.43 C 292.147 46.232 292.631 46.107 293.032 45.821 C 293.246 45.613 293.553 45.368 293.407 45.029 C 293.251 44.326 292.605 43.889 292.053 43.508 C 291.391 43.045 290.641 42.738 289.938 42.368 C 289.157 42.034 288.11 40.816 277.553 38.816 C 273.657 38.071 269.714 37.732 269.553 37.607 C 265.912 37.675 262.24 33.534 261.126 33.201 C 260.949 33.087 260.824 33.54 260.735 33.54 L 260.74 33.54 C 260.631 34.196 260.334 39.107 260.938 39.295 C 260.261 39.493 259.548 39.472 258.86 39.618 C 257.725 39.837 251.98 41.571 249.032 42.248 C 247.99 42.441 246.917 42.404 245.86 42.409 C 244.845 42.389 243.839 42.165 242.86 41.904 C 241.662 41.566 232.032 37.54 231.97 37.868 C 231.996 40.545 233.423 42.357 234.438 44.738 C 234.475 45.081 234.615 45.42 234.568 45.774 C 234.001 47.613 231.86 49.206 231.334 51.107 C 231.334 51.472 231.178 51.8 231.042 52.128 C 231.485 52.159 231.928 52.186 232.371 52.175 C 233.334 52.061 238.99 50.639 239.86 50.436 C 240.709 50.238 241.506 49.873 242.35 49.665 C 242.824 49.555 243.256 49.305 243.735 49.227 C 244.683 49.102 245.641 48.982 246.605 49.076 C 247.272 49.149 247.938 49.212 248.6 49.352 C 249.095 49.462 252.787 50.159 254.996 50.915 C 256.449 51.029 261.959 53.279 262.48 53.389 C 261.631 54.769 261.725 55.529 261.506 57.17 C 261.365 57.748 261.339 58.415 261.746 58.894 C 261.928 59.066 262.225 59.076 262.433 58.936 C 265.412 55.769 268.756 54.55 268.897 54.097 C 270.714 54.316 272.537 54.128 274.36 54.139 C 284.371 54.034 291.319 48.717 291.959 48.363 C 292.496 48.092 293.063 47.79 293.386 47.264 C 293.641 47.029 293.553 46.555 293.235 46.43 Z  M 287.178 46.118 C 286.589 46.118 286.11 45.639 286.11 45.05 C 286.11 44.456 286.589 43.977 287.178 43.977 C 287.766 43.977 288.246 44.456 288.246 45.05 C 288.246 45.639 287.766 46.118 287.178 46.118 Z " fill="rgb(255,255,255)"/></g></g><g><g><path d=" M 127.621 84.488 C 126.981 84.488 126.413 84.409 125.913 84.258 C 125.413 84.107 124.996 83.904 124.663 83.654 C 124.34 83.394 124.09 83.107 123.913 82.8 L 124.913 81.571 L 125.079 81.571 C 125.356 81.988 125.704 82.321 126.121 82.571 C 126.548 82.811 127.048 82.925 127.621 82.925 C 128.106 82.925 128.475 82.821 128.725 82.613 C 128.975 82.404 129.1 82.123 129.1 81.758 C 129.1 81.54 129.059 81.357 128.975 81.217 C 128.902 81.066 128.772 80.941 128.579 80.842 C 128.397 80.732 128.147 80.633 127.829 80.55 L 126.642 80.279 C 125.819 80.102 125.204 79.795 124.788 79.363 C 124.382 78.92 124.184 78.342 124.184 77.633 C 124.184 77.107 124.314 76.649 124.579 76.258 C 124.84 75.873 125.215 75.566 125.704 75.342 C 126.204 75.123 126.798 75.008 127.496 75.008 C 128.215 75.008 128.829 75.107 129.329 75.3 C 129.84 75.482 130.272 75.769 130.621 76.154 L 129.704 77.383 L 129.559 77.383 C 129.293 77.107 128.996 76.904 128.663 76.779 C 128.329 76.644 127.939 76.571 127.496 76.571 C 126.996 76.571 126.611 76.665 126.35 76.842 C 126.1 77.008 125.975 77.253 125.975 77.571 C 125.975 77.863 126.064 78.092 126.246 78.258 C 126.423 78.425 126.746 78.561 127.204 78.654 L 128.413 78.904 C 129.298 79.102 129.944 79.425 130.35 79.883 C 130.751 80.331 130.954 80.92 130.954 81.654 C 130.954 82.227 130.829 82.727 130.579 83.154 C 130.34 83.571 129.975 83.899 129.475 84.133 C 128.975 84.368 128.356 84.488 127.621 84.488 Z " fill="rgb(16,81,171)"/></g></g><g><g><path d=" M 136.403 80.321 L 136.403 82.842 L 140.799 82.842 L 140.799 84.363 L 134.59 84.363 L 134.59 75.133 L 140.694 75.133 L 140.694 76.675 L 136.403 76.675 L 136.403 78.821 L 140.153 78.821 L 140.153 80.321 L 136.403 80.321 Z " fill="rgb(16,81,171)"/></g></g><g><g><path d=" M 152.086 84.363 L 150.17 84.363 L 149.461 82.238 L 145.941 82.238 L 145.253 84.363 L 143.378 84.363 L 146.566 75.133 L 148.899 75.133 L 152.086 84.363 Z  M 147.607 77.071 L 146.42 80.696 L 148.961 80.696 L 147.774 77.071 L 147.607 77.071 Z " fill="rgb(16,81,171)"/></g></g><g><g><path d=" M 161.184 75.133 L 161.184 76.675 L 157.163 76.675 L 157.163 79.113 L 160.809 79.113 L 160.809 80.613 L 157.163 80.613 L 157.163 84.363 L 155.35 84.363 L 155.35 75.133 L 161.184 75.133 Z " fill="rgb(16,81,171)"/></g></g><g><g><path d=" M 168.54 84.488 C 167.691 84.488 166.941 84.321 166.29 83.988 C 165.65 83.644 165.15 83.113 164.79 82.404 C 164.426 81.696 164.248 80.816 164.248 79.758 C 164.248 78.706 164.426 77.821 164.79 77.113 C 165.15 76.404 165.65 75.878 166.29 75.529 C 166.941 75.186 167.691 75.008 168.54 75.008 C 169.384 75.008 170.129 75.186 170.769 75.529 C 171.42 75.863 171.926 76.394 172.29 77.113 C 172.65 77.821 172.832 78.706 172.832 79.758 C 172.832 80.816 172.65 81.696 172.29 82.404 C 171.926 83.113 171.42 83.644 170.769 83.988 C 170.129 84.321 169.384 84.488 168.54 84.488 Z  M 168.54 82.904 C 169.332 82.904 169.926 82.654 170.332 82.154 C 170.748 81.654 170.957 80.857 170.957 79.758 C 170.957 78.649 170.748 77.842 170.332 77.342 C 169.926 76.842 169.332 76.592 168.54 76.592 C 167.759 76.592 167.165 76.842 166.748 77.342 C 166.332 77.842 166.123 78.649 166.123 79.758 C 166.123 80.857 166.332 81.654 166.748 82.154 C 167.165 82.654 167.759 82.904 168.54 82.904 Z " fill="rgb(16,81,171)"/></g></g><g><g><path d=" M 180.509 84.488 C 179.66 84.488 178.91 84.321 178.259 83.988 C 177.618 83.644 177.118 83.113 176.759 82.404 C 176.394 81.696 176.217 80.816 176.217 79.758 C 176.217 78.706 176.394 77.821 176.759 77.113 C 177.118 76.404 177.618 75.878 178.259 75.529 C 178.91 75.186 179.66 75.008 180.509 75.008 C 181.353 75.008 182.098 75.186 182.738 75.529 C 183.389 75.863 183.894 76.394 184.259 77.113 C 184.618 77.821 184.801 78.706 184.801 79.758 C 184.801 80.816 184.618 81.696 184.259 82.404 C 183.894 83.113 183.389 83.644 182.738 83.988 C 182.098 84.321 181.353 84.488 180.509 84.488 Z  M 180.509 82.904 C 181.301 82.904 181.894 82.654 182.301 82.154 C 182.717 81.654 182.926 80.857 182.926 79.758 C 182.926 78.649 182.717 77.842 182.301 77.342 C 181.894 76.842 181.301 76.592 180.509 76.592 C 179.728 76.592 179.134 76.842 178.717 77.342 C 178.301 77.842 178.092 78.649 178.092 79.758 C 178.092 80.857 178.301 81.654 178.717 82.154 C 179.134 82.654 179.728 82.904 180.509 82.904 Z " fill="rgb(16,81,171)"/></g></g><g><g><path d=" M 191.978 75.133 C 193.478 75.133 194.613 75.524 195.395 76.3 C 196.186 77.081 196.582 78.232 196.582 79.758 C 196.582 81.274 196.186 82.42 195.395 83.196 C 194.613 83.977 193.478 84.363 191.978 84.363 L 188.665 84.363 L 188.665 75.133 L 191.978 75.133 Z  M 191.874 82.821 C 192.817 82.821 193.525 82.587 193.999 82.113 C 194.468 81.628 194.707 80.842 194.707 79.758 C 194.707 78.675 194.468 77.894 193.999 77.404 C 193.525 76.92 192.817 76.675 191.874 76.675 L 190.478 76.675 L 190.478 82.821 L 191.874 82.821 Z " fill="rgb(16,81,171)"/></g></g></g></g></svg>